<?xml version="1.0" encoding="UTF-8" standalone="no"?>
<!-- Created with Inkscape (http://www.inkscape.org/) -->

<svg
   xmlns:dc="http://purl.org/dc/elements/1.1/"
   xmlns:cc="http://creativecommons.org/ns#"
   xmlns:rdf="http://www.w3.org/1999/02/22-rdf-syntax-ns#"
   xmlns:svg="http://www.w3.org/2000/svg"
   xmlns="http://www.w3.org/2000/svg"
   xmlns:sodipodi="http://sodipodi.sourceforge.net/DTD/sodipodi-0.dtd"
   xmlns:inkscape="http://www.inkscape.org/namespaces/inkscape"
   width="24"
   height="24"
   viewBox="0 0 6.3499999 6.3500002"
   version="1.1"
   id="svg8"
   inkscape:version="0.92.4 (5da689c313, 2019-01-14)"
   sodipodi:docname="11. Bulb Idea Light creative, business, innovation, inspiration.svg">
  <defs
     id="defs2">
    <pattern
       y="0"
       x="0"
       height="6"
       width="6"
       patternUnits="userSpaceOnUse"
       id="EMFhbasepattern" />
    <pattern
       y="0"
       x="0"
       height="6"
       width="6"
       patternUnits="userSpaceOnUse"
       id="EMFhbasepattern-3" />
    <pattern
       y="0"
       x="0"
       height="6"
       width="6"
       patternUnits="userSpaceOnUse"
       id="EMFhbasepattern-2" />
    <pattern
       y="0"
       x="0"
       height="6"
       width="6"
       patternUnits="userSpaceOnUse"
       id="EMFhbasepattern-1" />
    <pattern
       y="0"
       x="0"
       height="6"
       width="6"
       patternUnits="userSpaceOnUse"
       id="EMFhbasepattern-5" />
  </defs>
  <sodipodi:namedview
     id="base"
     pagecolor="#ffffff"
     bordercolor="#666666"
     borderopacity="1.0"
     inkscape:pageopacity="0.0"
     inkscape:pageshadow="2"
     inkscape:zoom="7.9999995"
     inkscape:cx="-17.284015"
     inkscape:cy="15.638918"
     inkscape:document-units="px"
     inkscape:current-layer="layer1"
     showgrid="false"
     units="px"
     inkscape:window-width="1280"
     inkscape:window-height="658"
     inkscape:window-x="-8"
     inkscape:window-y="-8"
     inkscape:window-maximized="1"
     showguides="true"
     guidecolor="#af0000"
     guideopacity="0.49803922"
     guidehicolor="#ff4b4b"
     guidehiopacity="0.49803922"
     inkscape:snap-global="true">
    <inkscape:grid
       type="xygrid"
       id="grid815"
       empspacing="1"
       originx="0"
       originy="0"
       spacingx="0"
       spacingy="0"
       snapvisiblegridlinesonly="true"
       visible="true"
       enabled="true"
       dotted="false" />
  </sodipodi:namedview>
  <metadata
     id="metadata5">
    <rdf:RDF>
      <cc:Work
         rdf:about="">
        <dc:format>image/svg+xml</dc:format>
        <dc:type
           rdf:resource="http://purl.org/dc/dcmitype/StillImage" />
        <dc:title />
      </cc:Work>
    </rdf:RDF>
  </metadata>
  <g
     inkscape:label="Guides"
     inkscape:groupmode="layer"
     id="layer1"
     transform="translate(0,-290.64999)">
    <path
       style="color:#000000;font-style:normal;font-variant:normal;font-weight:normal;font-stretch:normal;font-size:medium;line-height:normal;font-family:sans-serif;font-variant-ligatures:normal;font-variant-position:normal;font-variant-caps:normal;font-variant-numeric:normal;font-variant-alternates:normal;font-feature-settings:normal;text-indent:0;text-align:start;text-decoration:none;text-decoration-line:none;text-decoration-style:solid;text-decoration-color:#000000;letter-spacing:normal;word-spacing:normal;text-transform:none;writing-mode:lr-tb;direction:ltr;text-orientation:mixed;dominant-baseline:auto;baseline-shift:baseline;text-anchor:start;white-space:normal;shape-padding:0;clip-rule:nonzero;display:inline;overflow:visible;visibility:visible;opacity:1;isolation:auto;mix-blend-mode:normal;color-interpolation:sRGB;color-interpolation-filters:linearRGB;solid-color:#000000;solid-opacity:1;vector-effect:none;fill:#000000;fill-opacity:1;fill-rule:nonzero;stroke:none;stroke-width:1;stroke-linecap:round;stroke-linejoin:round;stroke-miterlimit:4;stroke-dasharray:none;stroke-dashoffset:0;stroke-opacity:1;paint-order:normal;color-rendering:auto;image-rendering:auto;shape-rendering:auto;text-rendering:auto;enable-background:accumulate"
       d="M 12.003906 3.0351562 C 8.4322669 3.0351941 5.5293022 5.9749624 5.5292969 9.5761719 C 5.5315442 11.887429 6.8076319 13.947449 8.7617188 15.119141 L 8.7617188 16.271484 C 8.7606566 16.54928 8.986007 16.774496 9.2636719 16.773438 L 10.126953 16.773438 C 9.9780876 16.9925 9.8631308 17.23612 9.796875 17.5 A 0.50197797 0.25037439 0 0 1 9.8320312 17.5 L 14.173828 17.5 A 0.50197797 0.25037439 0 0 1 14.201172 17.5 C 14.135321 17.236084 14.020882 16.992531 13.873047 16.773438 L 14.734375 16.773438 C 15.012042 16.774496 15.23739 16.549317 15.236328 16.271484 L 15.236328 15.126953 C 17.196774 13.955564 18.468105 11.892418 18.46875 9.5761719 C 18.468745 5.9749624 15.575546 3.0351562 12.003906 3.0351562 z M 11.996094 8.1074219 A 0.50005003 0.50005003 0 0 1 12.498047 8.6152344 L 12.498047 13.001953 A 0.50005003 0.50005003 0 1 1 11.501953 13.001953 L 11.501953 8.6152344 A 0.50005003 0.50005003 0 0 1 11.996094 8.1074219 z M 8.7460938 9.4335938 A 0.50005003 0.50005003 0 0 1 9.1914062 9.7089844 L 11.212891 13.591797 A 0.50024495 0.50024495 0 1 1 10.328125 14.056641 L 8.3046875 10.173828 A 0.50005003 0.50005003 0 0 1 8.6953125 9.4355469 A 0.50005003 0.50005003 0 0 1 8.7460938 9.4335938 z M 15.103516 9.4355469 A 0.50005003 0.50005003 0 0 1 15.552734 10.173828 L 13.53125 14.056641 A 0.50058731 0.50058731 0 0 1 12.644531 13.591797 L 14.667969 9.7089844 A 0.50005003 0.50005003 0 0 1 15.103516 9.4355469 z M 9.7285156 17.998047 C 9.7280937 18.01602 9.7226562 18.03271 9.7226562 18.050781 C 9.7226562 18.204562 9.7383138 18.354437 9.7675781 18.5 A 0.50197797 0.25037439 0 0 1 9.8320312 18.5 L 14.173828 18.5 A 0.50197797 0.25037439 0 0 1 14.232422 18.5 C 14.261468 18.354495 14.277344 18.204497 14.277344 18.050781 C 14.277344 18.032717 14.271903 18.016013 14.271484 17.998047 A 0.50197797 0.25037439 0 0 1 14.173828 18 L 9.8320312 18 A 0.50259921 0.25068425 0 0 1 9.7285156 17.998047 z M 9.9355469 19 C 10.094171 19.344281 10.344987 19.631587 10.642578 19.859375 C 10.612161 19.86549 10.584195 19.868095 10.541016 19.882812 C 10.524386 19.886592 10.505005 19.894911 10.482422 19.90625 C 10.45982 19.917589 10.396791 19.94966 10.394531 19.951172 C 10.392271 19.952721 10.26872 20.07466 10.267578 20.076172 C 10.267006 20.076928 10.201459 20.200416 10.201172 20.201172 C 10.200884 20.201966 10.171875 20.370338 10.171875 20.371094 C 10.171875 20.371887 10.200907 20.548072 10.201172 20.548828 C 10.201459 20.549622 10.267007 20.673072 10.267578 20.673828 C 10.268722 20.675378 10.392271 20.797316 10.394531 20.798828 C 10.396791 20.800378 10.459839 20.833545 10.482422 20.84375 C 10.505023 20.855089 10.524382 20.857675 10.541016 20.865234 C 10.607547 20.887912 10.649424 20.896738 10.697266 20.904297 C 10.792941 20.919415 10.900502 20.930068 11.029297 20.941406 C 11.286887 20.960304 11.626625 20.972656 12.003906 20.972656 C 12.381186 20.972656 12.718973 20.960304 12.976562 20.941406 C 13.105357 20.933847 13.207059 20.919415 13.302734 20.904297 C 13.350572 20.896738 13.398313 20.887912 13.464844 20.865234 C 13.481474 20.861455 13.493054 20.855089 13.515625 20.84375 C 13.538227 20.832411 13.603212 20.80034 13.605469 20.798828 C 13.607729 20.797316 13.729327 20.67534 13.730469 20.673828 C 13.731041 20.673034 13.796588 20.549584 13.796875 20.548828 C 13.797163 20.548034 13.826172 20.37185 13.826172 20.371094 C 13.826172 20.3703 13.79714 20.201928 13.796875 20.201172 C 13.796587 20.200378 13.731039 20.076928 13.730469 20.076172 C 13.729325 20.074584 13.607729 19.952684 13.605469 19.951172 C 13.603209 19.94966 13.538208 19.916455 13.515625 19.90625 C 13.493023 19.894911 13.481481 19.890372 13.464844 19.882812 C 13.421622 19.86808 13.392002 19.865491 13.359375 19.859375 C 13.655856 19.631498 13.906591 19.344588 14.064453 19 L 9.9355469 19 z "
       transform="matrix(0.26458334,0,0,0.26458334,0,290.64999)"
       id="circle1066" />
  </g>
</svg>
