<svg width="96" height="96" xmlns="http://www.w3.org/2000/svg" xmlns:xlink="http://www.w3.org/1999/xlink" overflow="hidden"><defs><clipPath id="clip0"><rect x="0" y="0" width="96" height="96"/></clipPath></defs><g clip-path="url(#clip0)"><path d="M46 22C46 25.3137 43.3137 28 40 28 36.6863 28 34 25.3137 34 22 34 18.6863 36.6863 16 40 16 43.3137 16 46 18.6863 46 22Z" fill="#000000" fill-rule="nonzero" fill-opacity="1"/><path d="M40 7C40 8.65685 38.6569 10 37 10 35.3431 10 34 8.65685 34 7 34 5.34315 35.3431 4 37 4 38.6569 4 40 5.34315 40 7Z" fill="#000000" fill-rule="nonzero" fill-opacity="1"/><path d="M57 25C57 26.6569 55.6569 28 54 28 52.3431 28 51 26.6569 51 25 51 23.3431 52.3431 22 54 22 55.6569 22 57 23.3431 57 25Z" fill="#000000" fill-rule="nonzero" fill-opacity="1"/><path d="M60 12C60 14.2091 58.2091 16 56 16 53.7909 16 52 14.2091 52 12 52 9.79086 53.7909 8 56 8 58.2091 8 60 9.79086 60 12Z" fill="#000000" fill-rule="nonzero" fill-opacity="1"/><path d="M75.9 32.5C75.7 31.6 74.9 31 74 31L22 31C21.1 31 20.3 31.6 20.1 32.5 19.9 33.4 20.3 34.3 21.1 34.7 21.1 34.7 24.1 36.4 24.1 40L24.1 86C24.1 89.3 26.8 92 30.1 92L66.1 92C69.4 92 72.1 89.3 72.1 86L72.1 40C72.1 36.4 74.9 34.8 75 34.8 75.7 34.3 76.2 33.4 75.9 32.5ZM62 84 50 84 50 80 62 80 62 84ZM62 76 50 76 50 72 62 72 62 76ZM62 68 50 68 50 64 62 64 62 68ZM62 60 50 60 50 56 62 56 62 60ZM62 52 50 52 50 48 62 48 62 52ZM68 40 68 41.9C64.9 40.7 59.9 39 55 39 49.6 39 46.3 39.9 42.9 40.8 39.2 41.8 35.3 42.8 28 43L28 40C28 38 27.4 36.3 26.7 35L69.3 35C68.6 36.3 68 38 68 40Z" fill="#000000" fill-rule="nonzero" fill-opacity="1"/></g></svg>